<svg xmlns="http://www.w3.org/2000/svg" xmlns:xlink="http://www.w3.org/1999/xlink" width="64" height="64" viewBox="0 0 64 64">
  <defs>
    <style>
      .cls-1 {
        clip-path: url(#clip-moderncms_logo_white_cutout);
      }

      .cls-2 {
        fill: #fff;
      }
    </style>
    <clipPath id="clip-moderncms_logo_white_cutout">
      <rect width="64" height="64"/>
    </clipPath>
  </defs>
  <g id="moderncms_logo_white_cutout" class="cls-1">
    <path id="Subtraction_25" data-name="Subtraction 25" class="cls-2" d="M-261-286h-64v-64h64v64Zm-21.273-41.078h.281l-.07,1.547c-.109,2.074-.164,4-.164,5.719v18.422h9.985V-335h-14.93l-4.313,18.164c-.374,1.934-.649,3.629-.82,5.039h-.14c-.046-.62-.161-1.514-.34-2.66a22.323,22.323,0,0,0-.434-2.285L-297.836-335H-313v33.61h8.883v-15.845c0-1.3-.111-4.61-.328-9.843h.282c.591,3.294.961,5.218,1.1,5.719l5.18,19.969h9.516l4.946-20.2c.263-1.008.65-2.853,1.148-5.484Z" transform="translate(325 350)"/>
  </g>
</svg>
